<mxfile host="app.diagrams.net" modified="2022-03-15T08:20:55.133Z" agent="5.0 (Windows NT 10.0; Win64; x64) AppleWebKit/537.36 (KHTML, like Gecko) Chrome/99.0.4844.51 Safari/537.36" etag="5JeeSY3QrvvH24DLyVHf" version="17.1.2" type="github">
  <diagram id="9odl6fJlhLZU854EHAnx" name="Page-1">
    <mxGraphModel dx="460" dy="824" grid="1" gridSize="10" guides="1" tooltips="1" connect="1" arrows="1" fold="1" page="1" pageScale="1" pageWidth="827" pageHeight="1169" math="0" shadow="0">
      <root>
        <mxCell id="0" />
        <mxCell id="1" parent="0" />
        <mxCell id="dwNWJNs5U68Br9k3ti2I-1" value="含应用、框架等" style="ellipse;whiteSpace=wrap;html=1;" parent="1" vertex="1">
          <mxGeometry x="20" y="380" width="120" height="80" as="geometry" />
        </mxCell>
        <mxCell id="dwNWJNs5U68Br9k3ti2I-2" value="顶层命名空间" style="text;html=1;strokeColor=none;fillColor=none;align=center;verticalAlign=middle;whiteSpace=wrap;rounded=0;" parent="1" vertex="1">
          <mxGeometry x="240" y="405" width="60" height="30" as="geometry" />
        </mxCell>
        <mxCell id="dwNWJNs5U68Br9k3ti2I-3" value="模块" style="text;html=1;strokeColor=none;fillColor=none;align=center;verticalAlign=middle;whiteSpace=wrap;rounded=0;fontStyle=1;fontSize=15;" parent="1" vertex="1">
          <mxGeometry x="50" y="350" width="60" height="40" as="geometry" />
        </mxCell>
        <mxCell id="dwNWJNs5U68Br9k3ti2I-4" value="" style="endArrow=classic;html=1;rounded=0;fontSize=15;entryX=1;entryY=0.5;entryDx=0;entryDy=0;exitX=0;exitY=0.5;exitDx=0;exitDy=0;" parent="1" source="dwNWJNs5U68Br9k3ti2I-2" target="dwNWJNs5U68Br9k3ti2I-1" edge="1">
          <mxGeometry width="50" height="50" relative="1" as="geometry">
            <mxPoint x="210" y="440" as="sourcePoint" />
            <mxPoint x="260" y="390" as="targetPoint" />
          </mxGeometry>
        </mxCell>
      </root>
    </mxGraphModel>
  </diagram>
</mxfile>
